<svg xmlns="http://www.w3.org/2000/svg" xmlns:xlink="http://www.w3.org/1999/xlink" version="1.1" class="marks" width="834" height="492" viewBox="0 0 834 492"><rect width="834" height="492" fill="#1a1a2e"/><g fill="none" stroke-miterlimit="10" transform="translate(83,49)"><g class="mark-group role-frame root" role="graphics-object" aria-roledescription="group mark container"><g transform="translate(0,0)"><path class="background" aria-hidden="true" d="M0.5,0.5h720v360h-720Z" stroke="#ddd"/><g><g class="mark-group role-axis" aria-hidden="true"><g transform="translate(0.5,360.5)"><path class="background" aria-hidden="true" d="M0,0h0v0h0Z" pointer-events="none"/><g><g class="mark-rule role-axis-grid" pointer-events="none"><line transform="translate(26,-360)" x2="0" y2="360" stroke="#555" stroke-width="1" opacity="1"/><line transform="translate(79,-360)" x2="0" y2="360" stroke="#555" stroke-width="1" opacity="1"/><line transform="translate(132,-360)" x2="0" y2="360" stroke="#555" stroke-width="1" opacity="1"/><line transform="translate(186,-360)" x2="0" y2="360" stroke="#555" stroke-width="1" opacity="1"/><line transform="translate(240,-360)" x2="0" y2="360" stroke="#555" stroke-width="1" opacity="1"/><line transform="translate(293,-360)" x2="0" y2="360" stroke="#555" stroke-width="1" opacity="1"/><line transform="translate(346,-360)" x2="0" y2="360" stroke="#555" stroke-width="1" opacity="1"/><line transform="translate(400,-360)" x2="0" y2="360" stroke="#555" stroke-width="1" opacity="1"/><line transform="translate(454,-360)" x2="0" y2="360" stroke="#555" stroke-width="1" opacity="1"/><line transform="translate(506,-360)" x2="0" y2="360" stroke="#555" stroke-width="1" opacity="1"/><line transform="translate(559,-360)" x2="0" y2="360" stroke="#555" stroke-width="1" opacity="1"/><line transform="translate(613,-360)" x2="0" y2="360" stroke="#555" stroke-width="1" opacity="1"/><line transform="translate(667,-360)" x2="0" y2="360" stroke="#555" stroke-width="1" opacity="1"/><line transform="translate(719,-360)" x2="0" y2="360" stroke="#555" stroke-width="1" opacity="1"/></g></g><path class="foreground" aria-hidden="true" d="" pointer-events="none" display="none"/></g></g><g class="mark-group role-axis" aria-hidden="true"><g transform="translate(0.5,0.5)"><path class="background" aria-hidden="true" d="M0,0h0v0h0Z" pointer-events="none"/><g><g class="mark-rule role-axis-grid" pointer-events="none"><line transform="translate(0,360)" x2="720" y2="0" stroke="#555" stroke-width="1" opacity="1"/><line transform="translate(0,330)" x2="720" y2="0" stroke="#555" stroke-width="1" opacity="1"/><line transform="translate(0,300)" x2="720" y2="0" stroke="#555" stroke-width="1" opacity="1"/><line transform="translate(0,270)" x2="720" y2="0" stroke="#555" stroke-width="1" opacity="1"/><line transform="translate(0,240)" x2="720" y2="0" stroke="#555" stroke-width="1" opacity="1"/><line transform="translate(0,210)" x2="720" y2="0" stroke="#555" stroke-width="1" opacity="1"/><line transform="translate(0,180)" x2="720" y2="0" stroke="#555" stroke-width="1" opacity="1"/><line transform="translate(0,150)" x2="720" y2="0" stroke="#555" stroke-width="1" opacity="1"/><line transform="translate(0,120)" x2="720" y2="0" stroke="#555" stroke-width="1" opacity="1"/><line transform="translate(0,90)" x2="720" y2="0" stroke="#555" stroke-width="1" opacity="1"/><line transform="translate(0,60)" x2="720" y2="0" stroke="#555" stroke-width="1" opacity="1"/><line transform="translate(0,30)" x2="720" y2="0" stroke="#555" stroke-width="1" opacity="1"/><line transform="translate(0,0)" x2="720" y2="0" stroke="#555" stroke-width="1" opacity="1"/></g></g><path class="foreground" aria-hidden="true" d="" pointer-events="none" display="none"/></g></g><g class="mark-group role-axis" role="graphics-symbol" aria-roledescription="axis" aria-label="X-axis titled 'Date' for a time scale with values from November 2022 to April 2026"><g transform="translate(0.5,360.5)"><path class="background" aria-hidden="true" d="M0,0h0v0h0Z" pointer-events="none"/><g><g class="mark-rule role-axis-tick" pointer-events="none"><line transform="translate(26,0)" x2="0" y2="5" stroke="#555" stroke-width="1" opacity="1"/><line transform="translate(79,0)" x2="0" y2="5" stroke="#555" stroke-width="1" opacity="1"/><line transform="translate(132,0)" x2="0" y2="5" stroke="#555" stroke-width="1" opacity="1"/><line transform="translate(186,0)" x2="0" y2="5" stroke="#555" stroke-width="1" opacity="1"/><line transform="translate(240,0)" x2="0" y2="5" stroke="#555" stroke-width="1" opacity="1"/><line transform="translate(293,0)" x2="0" y2="5" stroke="#555" stroke-width="1" opacity="1"/><line transform="translate(346,0)" x2="0" y2="5" stroke="#555" stroke-width="1" opacity="1"/><line transform="translate(400,0)" x2="0" y2="5" stroke="#555" stroke-width="1" opacity="1"/><line transform="translate(454,0)" x2="0" y2="5" stroke="#555" stroke-width="1" opacity="1"/><line transform="translate(506,0)" x2="0" y2="5" stroke="#555" stroke-width="1" opacity="1"/><line transform="translate(559,0)" x2="0" y2="5" stroke="#555" stroke-width="1" opacity="1"/><line transform="translate(613,0)" x2="0" y2="5" stroke="#555" stroke-width="1" opacity="1"/><line transform="translate(667,0)" x2="0" y2="5" stroke="#555" stroke-width="1" opacity="1"/><line transform="translate(719,0)" x2="0" y2="5" stroke="#555" stroke-width="1" opacity="1"/></g><g class="mark-text role-axis-label" pointer-events="none"><text text-anchor="end" transform="translate(26.277825555348496,7) rotate(315) translate(0,8)" font-family="sans-serif" font-size="10px" fill="#e0e0e0" opacity="1">Jan 2023</text><text text-anchor="end" transform="translate(78.85783053588362,7) rotate(315) translate(0,8)" font-family="sans-serif" font-size="10px" fill="#e0e0e0" opacity="1">Apr 2023</text><text text-anchor="end" transform="translate(132.04668226237214,7) rotate(315) translate(0,8)" font-family="sans-serif" font-size="10px" fill="#e0e0e0" opacity="1">Jul 2023</text><text text-anchor="end" transform="translate(185.82002686497592,7) rotate(315) translate(0,8)" font-family="sans-serif" font-size="10px" fill="#e0e0e0" opacity="1">Oct 2023</text><text text-anchor="end" transform="translate(239.61772533741785,7) rotate(315) translate(0,8)" font-family="sans-serif" font-size="10px" fill="#e0e0e0" opacity="1">Jan 2024</text><text text-anchor="end" transform="translate(292.78222319406825,7) rotate(315) translate(0,8)" font-family="sans-serif" font-size="10px" fill="#e0e0e0" opacity="1">Apr 2024</text><text text-anchor="end" transform="translate(345.97107492055676,7) rotate(315) translate(0,8)" font-family="sans-serif" font-size="10px" fill="#e0e0e0" opacity="1">Jul 2024</text><text text-anchor="end" transform="translate(399.74441952316056,7) rotate(315) translate(0,8)" font-family="sans-serif" font-size="10px" fill="#e0e0e0" opacity="1">Oct 2024</text><text text-anchor="end" transform="translate(453.54211799560244,7) rotate(315) translate(0,8)" font-family="sans-serif" font-size="10px" fill="#e0e0e0" opacity="1">Jan 2025</text><text text-anchor="end" transform="translate(506.12212297613763,7) rotate(315) translate(0,8)" font-family="sans-serif" font-size="10px" fill="#e0e0e0" opacity="1">Apr 2025</text><text text-anchor="end" transform="translate(559.3109747026261,7) rotate(315) translate(0,8)" font-family="sans-serif" font-size="10px" fill="#e0e0e0" opacity="1">Jul 2025</text><text text-anchor="end" transform="translate(613.0843193052299,7) rotate(315) translate(0,8)" font-family="sans-serif" font-size="10px" fill="#e0e0e0" opacity="1">Oct 2025</text><text text-anchor="end" transform="translate(666.8820177776718,7) rotate(315) translate(0,8)" font-family="sans-serif" font-size="10px" fill="#e0e0e0" opacity="1">Jan 2026</text><text text-anchor="end" transform="translate(719.462022758207,7) rotate(315) translate(0,8)" font-family="sans-serif" font-size="10px" fill="#e0e0e0" opacity="1">Apr 2026</text></g><g class="mark-rule role-axis-domain" pointer-events="none"><line transform="translate(0,0)" x2="720" y2="0" stroke="#555" stroke-width="1" opacity="1"/></g><g class="mark-text role-axis-title" pointer-events="none"><text text-anchor="middle" transform="translate(360,56.16671646938033)" font-family="sans-serif" font-size="11px" font-weight="bold" fill="#e0e0e0" opacity="1">Date</text></g></g><path class="foreground" aria-hidden="true" d="" pointer-events="none" display="none"/></g></g><g class="mark-group role-axis" role="graphics-symbol" aria-roledescription="axis" aria-label="Y-axis titled 'Price (USD)' for a linear scale with values from 10,000 to 130,000"><g transform="translate(0.5,0.5)"><path class="background" aria-hidden="true" d="M0,0h0v0h0Z" pointer-events="none"/><g><g class="mark-rule role-axis-tick" pointer-events="none"><line transform="translate(0,360)" x2="-5" y2="0" stroke="#555" stroke-width="1" opacity="1"/><line transform="translate(0,330)" x2="-5" y2="0" stroke="#555" stroke-width="1" opacity="1"/><line transform="translate(0,300)" x2="-5" y2="0" stroke="#555" stroke-width="1" opacity="1"/><line transform="translate(0,270)" x2="-5" y2="0" stroke="#555" stroke-width="1" opacity="1"/><line transform="translate(0,240)" x2="-5" y2="0" stroke="#555" stroke-width="1" opacity="1"/><line transform="translate(0,210)" x2="-5" y2="0" stroke="#555" stroke-width="1" opacity="1"/><line transform="translate(0,180)" x2="-5" y2="0" stroke="#555" stroke-width="1" opacity="1"/><line transform="translate(0,150)" x2="-5" y2="0" stroke="#555" stroke-width="1" opacity="1"/><line transform="translate(0,120)" x2="-5" y2="0" stroke="#555" stroke-width="1" opacity="1"/><line transform="translate(0,90)" x2="-5" y2="0" stroke="#555" stroke-width="1" opacity="1"/><line transform="translate(0,60)" x2="-5" y2="0" stroke="#555" stroke-width="1" opacity="1"/><line transform="translate(0,30)" x2="-5" y2="0" stroke="#555" stroke-width="1" opacity="1"/><line transform="translate(0,0)" x2="-5" y2="0" stroke="#555" stroke-width="1" opacity="1"/></g><g class="mark-text role-axis-label" pointer-events="none"><text text-anchor="end" transform="translate(-7,363)" font-family="sans-serif" font-size="10px" fill="#e0e0e0" opacity="1">10,000</text><text text-anchor="end" transform="translate(-7,333)" font-family="sans-serif" font-size="10px" fill="#e0e0e0" opacity="1">20,000</text><text text-anchor="end" transform="translate(-7,303)" font-family="sans-serif" font-size="10px" fill="#e0e0e0" opacity="1">30,000</text><text text-anchor="end" transform="translate(-7,273)" font-family="sans-serif" font-size="10px" fill="#e0e0e0" opacity="1">40,000</text><text text-anchor="end" transform="translate(-7,243.00000000000003)" font-family="sans-serif" font-size="10px" fill="#e0e0e0" opacity="1">50,000</text><text text-anchor="end" transform="translate(-7,212.99999999999997)" font-family="sans-serif" font-size="10px" fill="#e0e0e0" opacity="1">60,000</text><text text-anchor="end" transform="translate(-7,183)" font-family="sans-serif" font-size="10px" fill="#e0e0e0" opacity="1">70,000</text><text text-anchor="end" transform="translate(-7,153)" font-family="sans-serif" font-size="10px" fill="#e0e0e0" opacity="1">80,000</text><text text-anchor="end" transform="translate(-7,123.00000000000001)" font-family="sans-serif" font-size="10px" fill="#e0e0e0" opacity="1">90,000</text><text text-anchor="end" transform="translate(-7,93)" font-family="sans-serif" font-size="10px" fill="#e0e0e0" opacity="1">100,000</text><text text-anchor="end" transform="translate(-7,62.999999999999986)" font-family="sans-serif" font-size="10px" fill="#e0e0e0" opacity="1">110,000</text><text text-anchor="end" transform="translate(-7,33.000000000000014)" font-family="sans-serif" font-size="10px" fill="#e0e0e0" opacity="1">120,000</text><text text-anchor="end" transform="translate(-7,3)" font-family="sans-serif" font-size="10px" fill="#e0e0e0" opacity="1">130,000</text></g><g class="mark-rule role-axis-domain" pointer-events="none"><line transform="translate(0,360)" x2="0" y2="-360" stroke="#555" stroke-width="1" opacity="1"/></g><g class="mark-text role-axis-title" pointer-events="none"><text text-anchor="middle" transform="translate(-47.1474609375,180) rotate(-90) translate(0,-2)" font-family="sans-serif" font-size="11px" font-weight="bold" fill="#e0e0e0" opacity="1">Price (USD)</text></g></g><path class="foreground" aria-hidden="true" d="" pointer-events="none" display="none"/></g></g><g class="mark-line role-mark marks" role="graphics-object" aria-roledescription="line mark container"><path aria-label="Date: Nov 2022; Price (USD): 16549.3744099" role="graphics-symbol" aria-roledescription="line mark" d="M0,340.352L4.091,338.527L8.183,339.842L12.274,336.626L16.366,339.607L20.457,340.409L24.549,339.727L28.64,336.058L32.732,328.25L36.823,320.977L40.915,318.933L45.006,320.783L49.097,317.056L53.189,317.526L57.28,319.08L61.372,324.945L65.463,317.223L69.555,307.956L73.646,304.885L77.738,305.387L81.829,300.254L85.92,303.651L90.012,305.047L94.103,302.994L98.195,307.341L102.286,307.883L106.378,311.078L110.469,308.677L114.561,311.331L118.652,314.672L122.744,299.814L126.835,299.974L130.926,298.495L135.018,299.05L139.109,300.411L143.201,302.061L147.292,302.506L151.384,301.185L155.475,303.859L159.567,310.301L163.658,308.592L167.749,312.453L171.841,311.336L175.932,308.472L180.024,311.015L184.115,306.595L188.207,309.121L192.298,304.933L196.39,286.819L200.481,283.786L204.573,282.989L208.664,276.581L212.755,277.609L216.847,276.704L220.938,258.932L225.03,260.978L229.121,259.351L233.213,259.518L237.304,261.62L241.396,250.015L245.487,261.962L249.578,269.91L253.67,262.444L257.761,257.343L261.853,234.182L265.944,234.393L270.036,203.264L274.127,191.281L278.219,171.058L282.31,185.593L286.402,182.713L290.493,191.68L294.584,178.403L298.676,205.89L302.767,197.128L306.859,215.103L310.95,206.568L315.042,191.027L319.133,182.404L323.225,187.08L327.316,176.347L331.407,185.168L335.499,194.894L339.59,207.545L343.682,209.551L347.773,216.605L351.865,197.697L355.956,193.915L360.048,195.632L364.139,224.559L368.231,213.689L372.322,206.703L376.413,213.052L380.505,216.646L384.596,218.257L388.688,204.962L392.779,200.891L396.871,208.449L400.962,208.043L405.054,187.343L409.145,190.279L413.236,173.421L417.328,163.104L421.419,118.351L425.511,107.919L429.602,102.047L433.694,95.411L437.785,87.544L441.877,90.468L445.968,92.631L450.06,107.263L454.151,104.825L458.242,89.678L462.334,80.07L466.425,79.863L470.517,100.464L474.608,97.399L478.7,100.536L482.791,137.309L486.883,118.54L490.974,140.447L495.065,130.196L499.157,129.567L503.248,143.422L507.34,142.202L511.431,137.707L515.523,109.061L519.614,107.629L523.706,98.824L527.797,79.544L531.889,61.632L535.98,66.669L540.071,75.997L544.163,64.365L548.254,75.359L552.346,68.231L556.437,63.733L560.529,56.519L564.62,34.562L568.712,34.008L572.803,37.073L576.894,45.268L580.986,20.232L585.077,47.192L589.169,55.813L593.26,55.542L597.352,48.173L601.443,40.145L605.535,49.014L609.626,34.465L613.718,19.858L617.809,57.775L621.9,67.111L625.992,59.834L630.083,78.563L634.175,85.319L638.266,116.263L642.358,118.892L646.449,108.502L650.541,114.437L654.632,131.808L658.723,127.463L662.815,127.69L666.906,116.378L670.998,99.958L675.089,122.499L679.181,123.106L683.272,171.049L687.364,189.383L691.455,191.291L695.547,186.558L699.638,172.561L703.729,179.925L707.821,176.712L711.912,176.547L716.004,185.981L720,185.981" stroke="#00e676" stroke-width="2"/></g><g class="mark-group role-title"><g transform="translate(360,-25)"><path class="background" aria-hidden="true" d="M0,0h0v0h0Z" pointer-events="none"/><g><g class="mark-text role-title-text" role="graphics-symbol" aria-roledescription="title" aria-label="Title text 'WBTC Price'" pointer-events="none"><text text-anchor="middle" transform="translate(0,13)" font-family="sans-serif" font-size="16px" font-weight="bold" fill="#e0e0e0" opacity="1">WBTC Price</text></g></g><path class="foreground" aria-hidden="true" d="" pointer-events="none" display="none"/></g></g></g><path class="foreground" aria-hidden="true" d="" display="none"/></g></g></g></svg>