<svg xmlns="http://www.w3.org/2000/svg" xmlns:xlink="http://www.w3.org/1999/xlink" version="1.1" class="marks" width="818" height="485" viewBox="0 0 818 485"><rect width="818" height="485" fill="#1a1a2e"/><g fill="none" stroke-miterlimit="10" transform="translate(72,49)"><g class="mark-group role-frame root" role="graphics-object" aria-roledescription="group mark container"><g transform="translate(0,0)"><path class="background" aria-hidden="true" d="M0.5,0.5h720v360h-720Z" stroke="#ddd"/><g><g class="mark-group role-axis" aria-hidden="true"><g transform="translate(0.5,360.5)"><path class="background" aria-hidden="true" d="M0,0h0v0h0Z" pointer-events="none"/><g><g class="mark-rule role-axis-grid" pointer-events="none"><line transform="translate(16,-360)" x2="0" y2="360" stroke="#555" stroke-width="1" opacity="1"/><line transform="translate(72,-360)" x2="0" y2="360" stroke="#555" stroke-width="1" opacity="1"/><line transform="translate(128,-360)" x2="0" y2="360" stroke="#555" stroke-width="1" opacity="1"/><line transform="translate(184,-360)" x2="0" y2="360" stroke="#555" stroke-width="1" opacity="1"/><line transform="translate(240,-360)" x2="0" y2="360" stroke="#555" stroke-width="1" opacity="1"/><line transform="translate(296,-360)" x2="0" y2="360" stroke="#555" stroke-width="1" opacity="1"/><line transform="translate(352,-360)" x2="0" y2="360" stroke="#555" stroke-width="1" opacity="1"/><line transform="translate(408,-360)" x2="0" y2="360" stroke="#555" stroke-width="1" opacity="1"/><line transform="translate(465,-360)" x2="0" y2="360" stroke="#555" stroke-width="1" opacity="1"/><line transform="translate(521,-360)" x2="0" y2="360" stroke="#555" stroke-width="1" opacity="1"/><line transform="translate(577,-360)" x2="0" y2="360" stroke="#555" stroke-width="1" opacity="1"/><line transform="translate(633,-360)" x2="0" y2="360" stroke="#555" stroke-width="1" opacity="1"/><line transform="translate(689,-360)" x2="0" y2="360" stroke="#555" stroke-width="1" opacity="1"/></g></g><path class="foreground" aria-hidden="true" d="" pointer-events="none" display="none"/></g></g><g class="mark-group role-axis" aria-hidden="true"><g transform="translate(0.5,0.5)"><path class="background" aria-hidden="true" d="M0,0h0v0h0Z" pointer-events="none"/><g><g class="mark-rule role-axis-grid" pointer-events="none"><line transform="translate(0,360)" x2="720" y2="0" stroke="#555" stroke-width="1" opacity="1"/><line transform="translate(0,315)" x2="720" y2="0" stroke="#555" stroke-width="1" opacity="1"/><line transform="translate(0,270)" x2="720" y2="0" stroke="#555" stroke-width="1" opacity="1"/><line transform="translate(0,225)" x2="720" y2="0" stroke="#555" stroke-width="1" opacity="1"/><line transform="translate(0,180)" x2="720" y2="0" stroke="#555" stroke-width="1" opacity="1"/><line transform="translate(0,135)" x2="720" y2="0" stroke="#555" stroke-width="1" opacity="1"/><line transform="translate(0,90)" x2="720" y2="0" stroke="#555" stroke-width="1" opacity="1"/><line transform="translate(0,45)" x2="720" y2="0" stroke="#555" stroke-width="1" opacity="1"/><line transform="translate(0,0)" x2="720" y2="0" stroke="#555" stroke-width="1" opacity="1"/></g></g><path class="foreground" aria-hidden="true" d="" pointer-events="none" display="none"/></g></g><g class="mark-group role-axis" role="graphics-symbol" aria-roledescription="axis" aria-label="X-axis titled 'Date' for a time scale with values from January 02 to April 01"><g transform="translate(0.5,360.5)"><path class="background" aria-hidden="true" d="M0,0h0v0h0Z" pointer-events="none"/><g><g class="mark-rule role-axis-tick" pointer-events="none"><line transform="translate(16,0)" x2="0" y2="5" stroke="#555" stroke-width="1" opacity="1"/><line transform="translate(72,0)" x2="0" y2="5" stroke="#555" stroke-width="1" opacity="1"/><line transform="translate(128,0)" x2="0" y2="5" stroke="#555" stroke-width="1" opacity="1"/><line transform="translate(184,0)" x2="0" y2="5" stroke="#555" stroke-width="1" opacity="1"/><line transform="translate(240,0)" x2="0" y2="5" stroke="#555" stroke-width="1" opacity="1"/><line transform="translate(296,0)" x2="0" y2="5" stroke="#555" stroke-width="1" opacity="1"/><line transform="translate(352,0)" x2="0" y2="5" stroke="#555" stroke-width="1" opacity="1"/><line transform="translate(408,0)" x2="0" y2="5" stroke="#555" stroke-width="1" opacity="1"/><line transform="translate(465,0)" x2="0" y2="5" stroke="#555" stroke-width="1" opacity="1"/><line transform="translate(521,0)" x2="0" y2="5" stroke="#555" stroke-width="1" opacity="1"/><line transform="translate(577,0)" x2="0" y2="5" stroke="#555" stroke-width="1" opacity="1"/><line transform="translate(633,0)" x2="0" y2="5" stroke="#555" stroke-width="1" opacity="1"/><line transform="translate(689,0)" x2="0" y2="5" stroke="#555" stroke-width="1" opacity="1"/></g><g class="mark-text role-axis-label" pointer-events="none"><text text-anchor="end" transform="translate(15.695087747754629,7) rotate(315) translate(0,8)" font-family="sans-serif" font-size="10px" fill="#e0e0e0" opacity="1">Jan 04</text><text text-anchor="end" transform="translate(71.79667799504777,7) rotate(315) translate(0,8)" font-family="sans-serif" font-size="10px" fill="#e0e0e0" opacity="1">Jan 11</text><text text-anchor="end" transform="translate(127.89826824234092,7) rotate(315) translate(0,8)" font-family="sans-serif" font-size="10px" fill="#e0e0e0" opacity="1">Jan 18</text><text text-anchor="end" transform="translate(183.99985848963405,7) rotate(315) translate(0,8)" font-family="sans-serif" font-size="10px" fill="#e0e0e0" opacity="1">Jan 25</text><text text-anchor="end" transform="translate(240.10144873692718,7) rotate(315) translate(0,8)" font-family="sans-serif" font-size="10px" fill="#e0e0e0" opacity="1">Feb 01</text><text text-anchor="end" transform="translate(296.2030389842203,7) rotate(315) translate(0,8)" font-family="sans-serif" font-size="10px" fill="#e0e0e0" opacity="1">Feb 08</text><text text-anchor="end" transform="translate(352.3046292315135,7) rotate(315) translate(0,8)" font-family="sans-serif" font-size="10px" fill="#e0e0e0" opacity="1">Feb 15</text><text text-anchor="end" transform="translate(408.4062194788066,7) rotate(315) translate(0,8)" font-family="sans-serif" font-size="10px" fill="#e0e0e0" opacity="1">Feb 22</text><text text-anchor="end" transform="translate(464.50780972609977,7) rotate(315) translate(0,8)" font-family="sans-serif" font-size="10px" fill="#e0e0e0" opacity="1">Mar 01</text><text text-anchor="end" transform="translate(520.6093999733929,7) rotate(315) translate(0,8)" font-family="sans-serif" font-size="10px" fill="#e0e0e0" opacity="1">Mar 08</text><text text-anchor="end" transform="translate(576.7109902206861,7) rotate(315) translate(0,8)" font-family="sans-serif" font-size="10px" fill="#e0e0e0" opacity="1">Mar 15</text><text text-anchor="end" transform="translate(632.8125804679792,7) rotate(315) translate(0,8)" font-family="sans-serif" font-size="10px" fill="#e0e0e0" opacity="1">Mar 22</text><text text-anchor="end" transform="translate(688.9141707152723,7) rotate(315) translate(0,8)" font-family="sans-serif" font-size="10px" fill="#e0e0e0" opacity="1">Mar 29</text></g><g class="mark-rule role-axis-domain" pointer-events="none"><line transform="translate(0,0)" x2="720" y2="0" stroke="#555" stroke-width="1" opacity="1"/></g><g class="mark-text role-axis-title" pointer-events="none"><text text-anchor="middle" transform="translate(360,49.085290648024795)" font-family="sans-serif" font-size="11px" font-weight="bold" fill="#e0e0e0" opacity="1">Date</text></g></g><path class="foreground" aria-hidden="true" d="" pointer-events="none" display="none"/></g></g><g class="mark-group role-axis" role="graphics-symbol" aria-roledescription="axis" aria-label="Y-axis titled 'Price (USD)' for a linear scale with values from 1,800 to 3,400"><g transform="translate(0.5,0.5)"><path class="background" aria-hidden="true" d="M0,0h0v0h0Z" pointer-events="none"/><g><g class="mark-rule role-axis-tick" pointer-events="none"><line transform="translate(0,360)" x2="-5" y2="0" stroke="#555" stroke-width="1" opacity="1"/><line transform="translate(0,315)" x2="-5" y2="0" stroke="#555" stroke-width="1" opacity="1"/><line transform="translate(0,270)" x2="-5" y2="0" stroke="#555" stroke-width="1" opacity="1"/><line transform="translate(0,225)" x2="-5" y2="0" stroke="#555" stroke-width="1" opacity="1"/><line transform="translate(0,180)" x2="-5" y2="0" stroke="#555" stroke-width="1" opacity="1"/><line transform="translate(0,135)" x2="-5" y2="0" stroke="#555" stroke-width="1" opacity="1"/><line transform="translate(0,90)" x2="-5" y2="0" stroke="#555" stroke-width="1" opacity="1"/><line transform="translate(0,45)" x2="-5" y2="0" stroke="#555" stroke-width="1" opacity="1"/><line transform="translate(0,0)" x2="-5" y2="0" stroke="#555" stroke-width="1" opacity="1"/></g><g class="mark-text role-axis-label" pointer-events="none"><text text-anchor="end" transform="translate(-7,363)" font-family="sans-serif" font-size="10px" fill="#e0e0e0" opacity="1">1,800</text><text text-anchor="end" transform="translate(-7,318)" font-family="sans-serif" font-size="10px" fill="#e0e0e0" opacity="1">2,000</text><text text-anchor="end" transform="translate(-7,273)" font-family="sans-serif" font-size="10px" fill="#e0e0e0" opacity="1">2,200</text><text text-anchor="end" transform="translate(-7,228)" font-family="sans-serif" font-size="10px" fill="#e0e0e0" opacity="1">2,400</text><text text-anchor="end" transform="translate(-7,183)" font-family="sans-serif" font-size="10px" fill="#e0e0e0" opacity="1">2,600</text><text text-anchor="end" transform="translate(-7,138)" font-family="sans-serif" font-size="10px" fill="#e0e0e0" opacity="1">2,800</text><text text-anchor="end" transform="translate(-7,93)" font-family="sans-serif" font-size="10px" fill="#e0e0e0" opacity="1">3,000</text><text text-anchor="end" transform="translate(-7,48)" font-family="sans-serif" font-size="10px" fill="#e0e0e0" opacity="1">3,200</text><text text-anchor="end" transform="translate(-7,3)" font-family="sans-serif" font-size="10px" fill="#e0e0e0" opacity="1">3,400</text></g><g class="mark-rule role-axis-domain" pointer-events="none"><line transform="translate(0,360)" x2="0" y2="-360" stroke="#555" stroke-width="1" opacity="1"/></g><g class="mark-text role-axis-title" pointer-events="none"><text text-anchor="middle" transform="translate(-36.0244140625,180) rotate(-90) translate(0,-2)" font-family="sans-serif" font-size="11px" font-weight="bold" fill="#e0e0e0" opacity="1">Price (USD)</text></g></g><path class="foreground" aria-hidden="true" d="" pointer-events="none" display="none"/></g></g><g class="mark-line role-mark marks" role="graphics-object" aria-roledescription="line mark container"><path aria-label="Date: Jan 02; Price (USD): 3120.84245392" role="graphics-symbol" aria-roledescription="line mark" d="M0,62.81L8.015,64.85L16.029,57.43L24.044,39.34L32.058,23.555L40.073,52.484L48.087,62.888L56.102,70.154L64.116,70.77L72.131,62.172L80.145,69.593L88.16,16.474L96.174,10.187L104.189,18.266L112.203,22.557L120.218,19.911L128.232,25.932L136.247,47.548L144.261,100.9L152.276,94.851L160.29,101.274L168.305,102.568L176.319,101.495L184.334,131.806L192.348,105.77L200.363,84.246L208.377,88.141L216.392,130.309L224.406,155.971L232.421,213.616L240.435,254.53L248.45,237.046L256.464,262.593L264.479,281.658L272.493,355.003L280.508,301.148L288.522,295.072L296.537,294.845L304.551,291.58L312.566,309.994L320.581,328.484L328.595,327.171L336.61,304.342L344.624,295.98L352.639,322.686L360.653,315.298L368.668,317.036L376.682,324.996L384.697,327.019L392.711,321.858L400.726,321.101L408.74,324.624L416.755,347.764L424.769,348.22L432.784,302.022L440.798,306.742L448.813,330.966L456.827,322.783L464.842,328.592L472.856,309.12L480.871,316.472L488.885,286.098L496.9,296.209L504.914,320.028L512.929,320.587L520.943,329.459L528.958,316.545L536.972,306.581L544.987,303.202L553.001,298.717L561.016,294.473L569.03,292.944L577.045,274.747L585.059,235.732L593.074,240.729L601.088,268.572L609.103,282.452L617.117,282.407L625.132,296.205L633.147,302.777L641.161,281.176L649.176,280.061L657.19,275.638L665.205,301.721L673.219,317.095L681.234,314.333L689.248,318.958L697.263,308.824L705.277,291.563L713.292,286.185L720,286.185" stroke="#00e676" stroke-width="2"/></g><g class="mark-group role-title"><g transform="translate(360,-25)"><path class="background" aria-hidden="true" d="M0,0h0v0h0Z" pointer-events="none"/><g><g class="mark-text role-title-text" role="graphics-symbol" aria-roledescription="title" aria-label="Title text 'WETH Price'" pointer-events="none"><text text-anchor="middle" transform="translate(0,13)" font-family="sans-serif" font-size="16px" font-weight="bold" fill="#e0e0e0" opacity="1">WETH Price</text></g></g><path class="foreground" aria-hidden="true" d="" pointer-events="none" display="none"/></g></g></g><path class="foreground" aria-hidden="true" d="" display="none"/></g></g></g></svg>