<svg xmlns="http://www.w3.org/2000/svg" xmlns:xlink="http://www.w3.org/1999/xlink" version="1.1" class="marks" width="829" height="482" viewBox="0 0 829 482"><rect width="829" height="482" fill="#1a1a2e"/><g fill="none" stroke-miterlimit="10" transform="translate(83,46)"><g class="mark-group role-frame root" role="graphics-object" aria-roledescription="group mark container"><g transform="translate(0,0)"><path class="background" aria-hidden="true" d="M0.5,0.5h720v360h-720Z" stroke="#ddd"/><g><g class="mark-group role-axis" aria-hidden="true"><g transform="translate(0.5,360.5)"><path class="background" aria-hidden="true" d="M0,0h0v0h0Z" pointer-events="none"/><g><g class="mark-rule role-axis-grid" pointer-events="none"><line transform="translate(4,-360)" x2="0" y2="360" stroke="#555" stroke-width="1" opacity="1"/><line transform="translate(32,-360)" x2="0" y2="360" stroke="#555" stroke-width="1" opacity="1"/><line transform="translate(60,-360)" x2="0" y2="360" stroke="#555" stroke-width="1" opacity="1"/><line transform="translate(88,-360)" x2="0" y2="360" stroke="#555" stroke-width="1" opacity="1"/><line transform="translate(116,-360)" x2="0" y2="360" stroke="#555" stroke-width="1" opacity="1"/><line transform="translate(144,-360)" x2="0" y2="360" stroke="#555" stroke-width="1" opacity="1"/><line transform="translate(172,-360)" x2="0" y2="360" stroke="#555" stroke-width="1" opacity="1"/><line transform="translate(200,-360)" x2="0" y2="360" stroke="#555" stroke-width="1" opacity="1"/><line transform="translate(228,-360)" x2="0" y2="360" stroke="#555" stroke-width="1" opacity="1"/><line transform="translate(256,-360)" x2="0" y2="360" stroke="#555" stroke-width="1" opacity="1"/><line transform="translate(284,-360)" x2="0" y2="360" stroke="#555" stroke-width="1" opacity="1"/><line transform="translate(312,-360)" x2="0" y2="360" stroke="#555" stroke-width="1" opacity="1"/><line transform="translate(340,-360)" x2="0" y2="360" stroke="#555" stroke-width="1" opacity="1"/><line transform="translate(368,-360)" x2="0" y2="360" stroke="#555" stroke-width="1" opacity="1"/><line transform="translate(396,-360)" x2="0" y2="360" stroke="#555" stroke-width="1" opacity="1"/><line transform="translate(424,-360)" x2="0" y2="360" stroke="#555" stroke-width="1" opacity="1"/><line transform="translate(452,-360)" x2="0" y2="360" stroke="#555" stroke-width="1" opacity="1"/><line transform="translate(480,-360)" x2="0" y2="360" stroke="#555" stroke-width="1" opacity="1"/><line transform="translate(508,-360)" x2="0" y2="360" stroke="#555" stroke-width="1" opacity="1"/><line transform="translate(536,-360)" x2="0" y2="360" stroke="#555" stroke-width="1" opacity="1"/><line transform="translate(564,-360)" x2="0" y2="360" stroke="#555" stroke-width="1" opacity="1"/><line transform="translate(592,-360)" x2="0" y2="360" stroke="#555" stroke-width="1" opacity="1"/><line transform="translate(620,-360)" x2="0" y2="360" stroke="#555" stroke-width="1" opacity="1"/><line transform="translate(648,-360)" x2="0" y2="360" stroke="#555" stroke-width="1" opacity="1"/><line transform="translate(676,-360)" x2="0" y2="360" stroke="#555" stroke-width="1" opacity="1"/><line transform="translate(704,-360)" x2="0" y2="360" stroke="#555" stroke-width="1" opacity="1"/></g></g><path class="foreground" aria-hidden="true" d="" pointer-events="none" display="none"/></g></g><g class="mark-group role-axis" aria-hidden="true"><g transform="translate(0.5,0.5)"><path class="background" aria-hidden="true" d="M0,0h0v0h0Z" pointer-events="none"/><g><g class="mark-rule role-axis-grid" pointer-events="none"><line transform="translate(0,360)" x2="720" y2="0" stroke="#555" stroke-width="1" opacity="1"/><line transform="translate(0,305)" x2="720" y2="0" stroke="#555" stroke-width="1" opacity="1"/><line transform="translate(0,249)" x2="720" y2="0" stroke="#555" stroke-width="1" opacity="1"/><line transform="translate(0,194)" x2="720" y2="0" stroke="#555" stroke-width="1" opacity="1"/><line transform="translate(0,138)" x2="720" y2="0" stroke="#555" stroke-width="1" opacity="1"/><line transform="translate(0,83)" x2="720" y2="0" stroke="#555" stroke-width="1" opacity="1"/><line transform="translate(0,28)" x2="720" y2="0" stroke="#555" stroke-width="1" opacity="1"/></g></g><path class="foreground" aria-hidden="true" d="" pointer-events="none" display="none"/></g></g><g class="mark-group role-axis" role="graphics-symbol" aria-roledescription="axis" aria-label="X-axis titled 'Date' for a time scale with values from October 04 to April 01"><g transform="translate(0.5,360.5)"><path class="background" aria-hidden="true" d="M0,0h0v0h0Z" pointer-events="none"/><g><g class="mark-rule role-axis-tick" pointer-events="none"><line transform="translate(4,0)" x2="0" y2="5" stroke="#555" stroke-width="1" opacity="1"/><line transform="translate(32,0)" x2="0" y2="5" stroke="#555" stroke-width="1" opacity="1"/><line transform="translate(60,0)" x2="0" y2="5" stroke="#555" stroke-width="1" opacity="1"/><line transform="translate(88,0)" x2="0" y2="5" stroke="#555" stroke-width="1" opacity="1"/><line transform="translate(116,0)" x2="0" y2="5" stroke="#555" stroke-width="1" opacity="1"/><line transform="translate(144,0)" x2="0" y2="5" stroke="#555" stroke-width="1" opacity="1"/><line transform="translate(172,0)" x2="0" y2="5" stroke="#555" stroke-width="1" opacity="1"/><line transform="translate(200,0)" x2="0" y2="5" stroke="#555" stroke-width="1" opacity="1"/><line transform="translate(228,0)" x2="0" y2="5" stroke="#555" stroke-width="1" opacity="1"/><line transform="translate(256,0)" x2="0" y2="5" stroke="#555" stroke-width="1" opacity="1"/><line transform="translate(284,0)" x2="0" y2="5" stroke="#555" stroke-width="1" opacity="1"/><line transform="translate(312,0)" x2="0" y2="5" stroke="#555" stroke-width="1" opacity="1"/><line transform="translate(340,0)" x2="0" y2="5" stroke="#555" stroke-width="1" opacity="1"/><line transform="translate(368,0)" x2="0" y2="5" stroke="#555" stroke-width="1" opacity="1"/><line transform="translate(396,0)" x2="0" y2="5" stroke="#555" stroke-width="1" opacity="1"/><line transform="translate(424,0)" x2="0" y2="5" stroke="#555" stroke-width="1" opacity="1"/><line transform="translate(452,0)" x2="0" y2="5" stroke="#555" stroke-width="1" opacity="1"/><line transform="translate(480,0)" x2="0" y2="5" stroke="#555" stroke-width="1" opacity="1"/><line transform="translate(508,0)" x2="0" y2="5" stroke="#555" stroke-width="1" opacity="1"/><line transform="translate(536,0)" x2="0" y2="5" stroke="#555" stroke-width="1" opacity="1"/><line transform="translate(564,0)" x2="0" y2="5" stroke="#555" stroke-width="1" opacity="1"/><line transform="translate(592,0)" x2="0" y2="5" stroke="#555" stroke-width="1" opacity="1"/><line transform="translate(620,0)" x2="0" y2="5" stroke="#555" stroke-width="1" opacity="1"/><line transform="translate(648,0)" x2="0" y2="5" stroke="#555" stroke-width="1" opacity="1"/><line transform="translate(676,0)" x2="0" y2="5" stroke="#555" stroke-width="1" opacity="1"/><line transform="translate(704,0)" x2="0" y2="5" stroke="#555" stroke-width="1" opacity="1"/></g><g class="mark-text role-axis-label" pointer-events="none"><text text-anchor="end" transform="translate(3.6699891508880484,7) rotate(315) translate(0,8)" font-family="sans-serif" font-size="10px" fill="#e0e0e0" opacity="1">Oct 05</text><text text-anchor="end" transform="translate(31.6953608485786,7) rotate(315) translate(0,8)" font-family="sans-serif" font-size="10px" fill="#e0e0e0" opacity="0">Oct 12</text><text text-anchor="end" transform="translate(59.72073254626915,7) rotate(315) translate(0,8)" font-family="sans-serif" font-size="10px" fill="#e0e0e0" opacity="1">Oct 19</text><text text-anchor="end" transform="translate(87.74610424395969,7) rotate(315) translate(0,8)" font-family="sans-serif" font-size="10px" fill="#e0e0e0" opacity="0">Oct 26</text><text text-anchor="end" transform="translate(115.93829363032697,7) rotate(315) translate(0,8)" font-family="sans-serif" font-size="10px" fill="#e0e0e0" opacity="1">Nov 02</text><text text-anchor="end" transform="translate(143.96366532801753,7) rotate(315) translate(0,8)" font-family="sans-serif" font-size="10px" fill="#e0e0e0" opacity="0">Nov 09</text><text text-anchor="end" transform="translate(171.9890370257081,7) rotate(315) translate(0,8)" font-family="sans-serif" font-size="10px" fill="#e0e0e0" opacity="1">Nov 16</text><text text-anchor="end" transform="translate(200.01440872339862,7) rotate(315) translate(0,8)" font-family="sans-serif" font-size="10px" fill="#e0e0e0" opacity="0">Nov 23</text><text text-anchor="end" transform="translate(228.0397804210892,7) rotate(315) translate(0,8)" font-family="sans-serif" font-size="10px" fill="#e0e0e0" opacity="1">Nov 30</text><text text-anchor="end" transform="translate(256.06515211877974,7) rotate(315) translate(0,8)" font-family="sans-serif" font-size="10px" fill="#e0e0e0" opacity="0">Dec 07</text><text text-anchor="end" transform="translate(284.0905238164703,7) rotate(315) translate(0,8)" font-family="sans-serif" font-size="10px" fill="#e0e0e0" opacity="1">Dec 14</text><text text-anchor="end" transform="translate(312.11589551416085,7) rotate(315) translate(0,8)" font-family="sans-serif" font-size="10px" fill="#e0e0e0" opacity="0">Dec 21</text><text text-anchor="end" transform="translate(340.14126721185136,7) rotate(315) translate(0,8)" font-family="sans-serif" font-size="10px" fill="#e0e0e0" opacity="1">Dec 28</text><text text-anchor="end" transform="translate(368.1666389095419,7) rotate(315) translate(0,8)" font-family="sans-serif" font-size="10px" fill="#e0e0e0" opacity="0">Jan 04</text><text text-anchor="end" transform="translate(396.1920106072325,7) rotate(315) translate(0,8)" font-family="sans-serif" font-size="10px" fill="#e0e0e0" opacity="1">Jan 11</text><text text-anchor="end" transform="translate(424.217382304923,7) rotate(315) translate(0,8)" font-family="sans-serif" font-size="10px" fill="#e0e0e0" opacity="0">Jan 18</text><text text-anchor="end" transform="translate(452.2427540026136,7) rotate(315) translate(0,8)" font-family="sans-serif" font-size="10px" fill="#e0e0e0" opacity="1">Jan 25</text><text text-anchor="end" transform="translate(480.26812570030415,7) rotate(315) translate(0,8)" font-family="sans-serif" font-size="10px" fill="#e0e0e0" opacity="0">Feb 01</text><text text-anchor="end" transform="translate(508.29349739799466,7) rotate(315) translate(0,8)" font-family="sans-serif" font-size="10px" fill="#e0e0e0" opacity="1">Feb 08</text><text text-anchor="end" transform="translate(536.3188690956852,7) rotate(315) translate(0,8)" font-family="sans-serif" font-size="10px" fill="#e0e0e0" opacity="0">Feb 15</text><text text-anchor="end" transform="translate(564.3442407933758,7) rotate(315) translate(0,8)" font-family="sans-serif" font-size="10px" fill="#e0e0e0" opacity="1">Feb 22</text><text text-anchor="end" transform="translate(592.3696124910664,7) rotate(315) translate(0,8)" font-family="sans-serif" font-size="10px" fill="#e0e0e0" opacity="0">Mar 01</text><text text-anchor="end" transform="translate(620.3949841887569,7) rotate(315) translate(0,8)" font-family="sans-serif" font-size="10px" fill="#e0e0e0" opacity="1">Mar 08</text><text text-anchor="end" transform="translate(648.4203558864474,7) rotate(315) translate(0,8)" font-family="sans-serif" font-size="10px" fill="#e0e0e0" opacity="0">Mar 15</text><text text-anchor="end" transform="translate(676.445727584138,7) rotate(315) translate(0,8)" font-family="sans-serif" font-size="10px" fill="#e0e0e0" opacity="1">Mar 22</text><text text-anchor="end" transform="translate(704.4710992818285,7) rotate(315) translate(0,8)" font-family="sans-serif" font-size="10px" fill="#e0e0e0" opacity="0">Mar 29</text></g><g class="mark-rule role-axis-domain" pointer-events="none"><line transform="translate(0,0)" x2="720" y2="0" stroke="#555" stroke-width="1" opacity="1"/></g><g class="mark-text role-axis-title" pointer-events="none"><text text-anchor="middle" transform="translate(360,49.4754423388162)" font-family="sans-serif" font-size="11px" font-weight="bold" fill="#e0e0e0" opacity="1">Date</text></g></g><path class="foreground" aria-hidden="true" d="" pointer-events="none" display="none"/></g></g><g class="mark-group role-axis" role="graphics-symbol" aria-roledescription="axis" aria-label="Y-axis titled 'Price (USD)' for a linear scale with values from 60,000 to 125,000"><g transform="translate(0.5,0.5)"><path class="background" aria-hidden="true" d="M0,0h0v0h0Z" pointer-events="none"/><g><g class="mark-rule role-axis-tick" pointer-events="none"><line transform="translate(0,360)" x2="-5" y2="0" stroke="#555" stroke-width="1" opacity="1"/><line transform="translate(0,305)" x2="-5" y2="0" stroke="#555" stroke-width="1" opacity="1"/><line transform="translate(0,249)" x2="-5" y2="0" stroke="#555" stroke-width="1" opacity="1"/><line transform="translate(0,194)" x2="-5" y2="0" stroke="#555" stroke-width="1" opacity="1"/><line transform="translate(0,138)" x2="-5" y2="0" stroke="#555" stroke-width="1" opacity="1"/><line transform="translate(0,83)" x2="-5" y2="0" stroke="#555" stroke-width="1" opacity="1"/><line transform="translate(0,28)" x2="-5" y2="0" stroke="#555" stroke-width="1" opacity="1"/></g><g class="mark-text role-axis-label" pointer-events="none"><text text-anchor="end" transform="translate(-7,363)" font-family="sans-serif" font-size="10px" fill="#e0e0e0" opacity="1">60,000</text><text text-anchor="end" transform="translate(-7,307.6153846153846)" font-family="sans-serif" font-size="10px" fill="#e0e0e0" opacity="1">70,000</text><text text-anchor="end" transform="translate(-7,252.23076923076923)" font-family="sans-serif" font-size="10px" fill="#e0e0e0" opacity="1">80,000</text><text text-anchor="end" transform="translate(-7,196.84615384615384)" font-family="sans-serif" font-size="10px" fill="#e0e0e0" opacity="1">90,000</text><text text-anchor="end" transform="translate(-7,141.46153846153845)" font-family="sans-serif" font-size="10px" fill="#e0e0e0" opacity="1">100,000</text><text text-anchor="end" transform="translate(-7,86.07692307692307)" font-family="sans-serif" font-size="10px" fill="#e0e0e0" opacity="1">110,000</text><text text-anchor="end" transform="translate(-7,30.692307692307672)" font-family="sans-serif" font-size="10px" fill="#e0e0e0" opacity="1">120,000</text></g><g class="mark-rule role-axis-domain" pointer-events="none"><line transform="translate(0,360)" x2="0" y2="-360" stroke="#555" stroke-width="1" opacity="1"/></g><g class="mark-text role-axis-title" pointer-events="none"><text text-anchor="middle" transform="translate(-47.1474609375,180) rotate(-90) translate(0,-2)" font-family="sans-serif" font-size="11px" font-weight="bold" fill="#e0e0e0" opacity="1">Price (USD)</text></g></g><path class="foreground" aria-hidden="true" d="" pointer-events="none" display="none"/></g></g><g class="mark-line role-mark marks" role="graphics-object" aria-roledescription="line mark container"><path aria-label="Date: Oct 04; Price (USD): 122290.361035" role="graphics-symbol" aria-roledescription="line mark" d="M0,15.007L4.004,7.528L8.007,0.477L12.011,20.381L16.014,8.968L20.018,18.704L24.022,65.993L28.025,79.145L32.029,55.022L36.033,53.94L40.036,63.388L44.04,78.969L48.043,93.044L52.047,103.435L56.051,98.568L60.054,90.406L64.058,80.688L68.062,91.575L72.065,96.205L76.069,82.897L80.072,77.121L84.076,72.415L88.08,57.788L92.083,60.469L96.087,67.946L100.091,82.771L104.094,92.375L108.098,84.949L112.101,82.296L116.105,79.975L120.109,101.578L124.112,129.607L128.116,117.347L132.12,131.465L136.123,121.168L140.127,126.756L144.13,113.06L148.134,103.74L152.138,123.11L156.141,129.819L160.145,140.06L164.149,169.568L168.152,163.797L172.156,172.474L176.159,182.97L180.163,177.965L184.167,186.948L188.17,213.998L192.174,221.577L196.178,224.049L200.181,212.432L204.185,204.127L208.188,209.07L212.192,191.8L216.196,189.126L220.199,189.225L224.203,189.766L228.207,192.321L232.21,214.752L236.214,187.312L240.217,172.62L244.221,182.576L248.225,197.869L252.228,198.534L256.232,192.174L260.236,190.036L264.239,179.532L268.243,183.576L272.246,180.793L276.25,193.464L280.254,193.559L284.257,204.773L288.261,214.112L292.265,206.6L296.268,215.645L300.272,219.862L304.275,205.282L308.279,204.142L312.283,202.193L316.286,202.63L320.29,208.483L324.294,207.624L328.297,210.243L332.301,209.222L336.304,206.528L340.308,206.776L344.312,208.759L348.315,204.089L352.319,208.042L356.323,200.345L360.326,194.388L364.33,191.252L368.333,186.478L372.337,173.087L376.341,174.301L380.344,187.16L384.348,189.549L388.352,191.017L392.355,192.089L396.359,190.076L400.362,188.146L404.366,166.029L408.37,156.846L412.373,164.222L416.377,164.513L420.381,166.988L424.384,174.425L428.388,180.729L432.391,203.835L436.395,198.46L440.399,197.532L444.402,197.101L448.406,199.025L452.41,214.353L456.413,204.124L460.417,199.191L464.42,199.581L468.424,225.234L472.428,226.86L476.431,257.477L480.435,267.555L484.439,257.132L488.442,273.56L492.446,288.09L496.449,344.512L500.453,302.472L504.457,309.238L508.46,303.596L512.464,304.803L516.468,312.54L520.471,321.938L524.475,325.664L528.478,311.69L532.482,306.595L536.486,312.176L540.489,311.028L544.493,319.235L548.497,325.46L552.5,322.931L556.504,317.162L560.507,316.875L564.511,317.005L568.515,335.136L572.518,338.649L576.522,316.722L580.526,319.661L584.529,328.296L588.533,322.367L592.536,328.929L596.54,312.216L600.544,314.824L604.547,290.881L608.551,300.822L612.555,315.688L616.558,320.61L620.562,327.915L624.565,314.101L628.569,305.8L632.573,304.477L636.576,302.925L640.58,299.748L644.584,298.816L648.587,290.05L652.591,278.549L656.594,283.673L660.598,298.544L664.602,305.531L668.605,302.678L672.609,311.697L676.613,317.283L680.616,300.421L684.62,302.397L688.623,298.241L692.627,312.518L696.631,325.404L700.634,325.415L704.638,327.219L708.642,322.955L712.645,315.073L716.649,313.563L720,313.563" stroke="#00e676" stroke-width="2"/></g><g class="mark-group role-title"><g transform="translate(360,-21.522907574794942)"><path class="background" aria-hidden="true" d="M0,0h0v0h0Z" pointer-events="none"/><g><g class="mark-text role-title-text" role="graphics-symbol" aria-roledescription="title" aria-label="Title text 'WBTC Price'" pointer-events="none"><text text-anchor="middle" transform="translate(0,13)" font-family="sans-serif" font-size="16px" font-weight="bold" fill="#e0e0e0" opacity="1">WBTC Price</text></g></g><path class="foreground" aria-hidden="true" d="" pointer-events="none" display="none"/></g></g></g><path class="foreground" aria-hidden="true" d="" display="none"/></g></g></g></svg>